HIERARCHY
ROOT Hips
{
	OFFSET 34.496513 44.105156 -20.748993
	CHANNELS 6 Xposition Yposition Zposition Xrotation Yrotation Zrotation
	JOINT Chest
	{
		OFFSET -1.209934 13.587955 0.240406
		CHANNELS 3 Xrotation Yrotation Zrotation
		JOINT Chest2
		{
			OFFSET -2.056225 21.326931 -0.023258
			CHANNELS 3 Xrotation Yrotation Zrotation
			JOINT Chest3
			{
				OFFSET 2.017277 14.693886 -1.685328
				CHANNELS 3 Xrotation Yrotation Zrotation
				JOINT Neck
				{
					OFFSET 2.411659 17.094429 0.761805
					CHANNELS 3 Xrotation Yrotation Zrotation
					JOINT Head
					{
						OFFSET -0.882050 10.441559 -0.153305
						CHANNELS 3 Xrotation Yrotation Zrotation
						End Site
						{
							OFFSET -0.809341 10.447380 -0.158031
						}
					}
				}
				JOINT LeftCollar
				{
					OFFSET 0.127518 13.144455 5.386215
					CHANNELS 3 Xrotation Yrotation Zrotation
					JOINT LeftUpArm
					{
						OFFSET 6.511890 4.076241 15.794903
						CHANNELS 3 Xrotation Yrotation Zrotation
						JOINT LeftLowArm
						{
							OFFSET -25.992702 18.119820 11.652435
							CHANNELS 3 Xrotation Yrotation Zrotation
							JOINT LeftHand
							{
								OFFSET -10.225845 25.404099 -12.288670
								CHANNELS 3 Xrotation Yrotation Zrotation
								End Site
								{
									OFFSET -2.234915 5.552216 -2.685756
								}
							}
						}
					}
				}
				JOINT RightCollar
				{
					OFFSET -1.956480 13.800842 -2.741835
					CHANNELS 3 Xrotation Yrotation Zrotation
					JOINT RightUpArm
					{
						OFFSET 0.167263 4.411301 -17.000256
						CHANNELS 3 Xrotation Yrotation Zrotation
						JOINT RightLowArm
						{
							OFFSET -29.053123 16.912170 -3.102985
							CHANNELS 3 Xrotation Yrotation Zrotation
							JOINT RightHand
							{
								OFFSET -11.727145 23.140274 15.098223
								CHANNELS 3 Xrotation Yrotation Zrotation
								End Site
								{
									OFFSET -2.563080 5.057541 3.299868
								}
							}
						}
					}
				}
			}
		}
	}
	JOINT LeftUpLeg
	{
		OFFSET 4.571568 0.249157 8.913912
		CHANNELS 3 Xrotation Yrotation Zrotation
		JOINT LeftLowLeg
		{
			OFFSET 34.721134 -20.238888 25.076263
			CHANNELS 3 Xrotation Yrotation Zrotation
			JOINT LeftFoot
			{
				OFFSET 44.083237 4.341145 -6.196062
				CHANNELS 3 Xrotation Yrotation Zrotation
				JOINT LeftToe
				{
					OFFSET 16.880493 -15.719333 5.245097
					CHANNELS 3 Xrotation Yrotation Zrotation
					End Site
					{
						OFFSET 2.637436 -22.886858 5.366058
					}
				}
			}
		}
	}
	JOINT RightUpLeg
	{
		OFFSET -4.571552 -0.249352 -8.913919
		CHANNELS 3 Xrotation Yrotation Zrotation
		JOINT RightLowLeg
		{
			OFFSET -44.742126 -15.555073 0.439421
			CHANNELS 3 Xrotation Yrotation Zrotation
			JOINT RightFoot
			{
				OFFSET 42.614109 -4.658102 -12.764027
				CHANNELS 3 Xrotation Yrotation Zrotation
				JOINT RightToe
				{
					OFFSET 17.802891 -15.559775 -0.712246
					CHANNELS 3 Xrotation Yrotation Zrotation
					End Site
					{
						OFFSET 3.996117 -23.063005 -3.418331
					}
				}
			}
		}
	}
}
MOTION
Frames: 14
Frame Time: 0.033333
-2.649410 105.615387 -1.111801 5.352916 60.399096 -5.532659 -0.374665 -0.272240 1.180108 1.142544 1.063092 3.410125 -2.075965 15.453380 7.480598 1.679955 4.999940 -7.874534 -0.000000 -0.000000 0.000001 43.611817 11.514645 -14.614836 90.397158 48.246349 -14.000443 1.335727 31.346921 48.864471 0.000003 -0.000006 -0.000001 -36.820443 -12.558432 7.510228 -40.886721 -56.677238 32.352933 13.450214 -22.285833 47.796523 0.000003 0.000001 0.000001 31.677410 -12.040430 -42.845544 -17.065706 -25.200960 -35.343832 -35.320288 10.857313 -10.331646 0.000000 0.000001 -0.000000 1.108375 -1.615584 72.718353 -1.111594 13.106150 -139.398082 -25.123362 25.810942 -9.474609 -0.000001 -0.000001 -0.000000 
-2.627331 105.619217 -1.120108 5.234314 59.897303 -5.394687 -0.275186 -0.254563 1.199117 0.997604 1.061215 3.119185 -2.065447 15.840619 7.790892 1.485951 5.040753 -8.243620 -0.000000 -0.000001 0.000001 43.778845 11.264705 -14.226602 89.520291 48.151311 -13.112981 1.398480 31.310205 48.419833 -0.000001 -0.000005 0.000002 -36.995856 -12.596256 7.794271 -40.362918 -56.431747 32.591860 13.485552 -22.466108 47.569515 0.000004 0.000003 -0.000000 31.950119 -11.942419 -42.818869 -17.217027 -25.512703 -35.666305 -35.270711 10.917412 -9.736687 0.000003 -0.000000 0.000001 1.300009 -1.623730 72.500395 -1.141615 13.331923 -139.347088 -24.997323 26.001449 -9.521908 -0.000001 0.000000 -0.000001 
-2.592758 105.626343 -1.122929 5.004293 59.849813 -5.732612 -0.150723 -0.245136 1.640131 1.015569 1.102994 3.101516 -2.170220 15.996088 7.673559 1.298926 4.965684 -7.884374 0.000000 -0.000001 -0.000001 43.787667 11.317323 -14.127819 89.572788 48.114619 -13.319916 1.912800 31.595396 48.345612 0.000006 -0.000003 -0.000003 -37.259573 -13.136049 7.221999 -40.767118 -56.897238 32.137536 13.225189 -22.328602 47.803606 0.000005 0.000001 -0.000003 32.266927 -11.604941 -42.290107 -17.082651 -25.447118 -35.645142 -35.290372 10.945519 -9.426914 0.000003 -0.000002 0.000001 1.488852 -1.617984 73.098665 -1.036378 13.198268 -139.224063 -25.252536 26.662285 -9.628271 -0.000001 0.000000 -0.000001 
-2.553509 105.625854 -1.127384 5.407375 59.814282 -5.790718 -0.281697 -0.264148 1.351203 0.865526 1.057458 2.905066 -2.098093 15.931532 7.860083 1.266633 4.772718 -7.475430 0.000000 -0.000000 0.000001 43.672151 11.401003 -14.065543 89.540638 48.189191 -13.151892 1.406901 31.417812 48.431007 0.000001 -0.000001 -0.000002 -36.810085 -12.632812 7.797715 -40.795070 -57.001579 32.343842 13.287252 -22.365400 47.347858 0.000003 0.000002 -0.000001 32.248591 -11.614723 -42.330125 -17.216298 -25.642709 -35.970396 -35.002664 10.803924 -9.438128 -0.000001 -0.000001 -0.000000 1.386676 -1.608394 72.732417 -1.191929 13.456630 -139.571842 -24.706666 25.947131 -9.611639 0.000001 -0.000001 -0.000001 
-2.496975 105.628448 -1.138046 5.836958 59.882393 -5.972438 -0.524399 -0.266635 0.832355 1.264847 1.044614 3.767655 -2.230574 15.852994 7.411596 1.092489 4.688143 -7.909706 -0.000000 -0.000000 0.000001 43.227789 11.587514 -13.972245 89.315126 48.181155 -12.693945 1.676129 32.209277 48.367824 0.000004 -0.000005 0.000002 -36.822667 -12.986622 7.504611 -40.567301 -56.908696 32.545687 13.494873 -22.270940 47.496992 0.000004 0.000001 -0.000001 32.154410 -11.734694 -42.544941 -17.352604 -25.805920 -36.085296 -34.483805 10.608849 -9.222689 0.000000 -0.000001 0.000000 1.148055 -1.604282 72.245042 -1.150383 13.258775 -139.119670 -24.414825 25.678779 -9.617855 0.000000 -0.000001 -0.000001 
-2.432961 105.633636 -1.138601 6.430262 59.992584 -6.538822 -0.441619 -0.281864 1.008507 0.736500 0.933337 3.233900 -2.065709 15.780160 7.880376 0.726180 4.546716 -7.783510 -0.000000 0.000000 0.000001 43.041496 11.754606 -13.833164 88.860338 48.201314 -12.046480 1.769357 32.387186 48.297852 0.000002 -0.000002 0.000002 -36.950104 -13.275254 7.383320 -40.160908 -56.753008 32.867533 13.342913 -22.202189 47.472379 0.000003 0.000001 0.000001 32.121618 -11.594537 -42.262700 -17.341121 -25.880876 -36.215562 -34.505508 10.607658 -9.216910 0.000001 -0.000001 0.000000 0.387752 -1.556713 71.485013 -0.897795 12.815039 -138.255911 -24.656361 25.408266 -9.534218 0.000000 -0.000002 -0.000000 
-2.363075 105.637390 -1.134998 6.538851 60.246380 -6.784647 -0.400818 -0.304175 1.161846 0.767069 0.901284 3.527709 -2.017319 15.580160 7.628091 0.571007 4.418689 -7.406042 0.000000 -0.000001 -0.000001 42.818695 11.614816 -13.557280 89.036679 48.308579 -12.074094 1.845469 32.482956 48.035819 0.000003 -0.000004 -0.000001 -36.954387 -13.375690 7.315207 -40.148180 -56.896907 32.890216 13.508229 -21.758905 47.390506 0.000004 0.000000 -0.000000 32.100960 -11.699251 -42.290315 -17.105099 -25.656554 -35.769171 -34.666492 10.619019 -9.224748 0.000001 -0.000001 0.000001 -0.136989 -1.515770 70.861300 -0.693829 12.179202 -137.272322 -24.780360 25.392234 -9.487394 0.000000 -0.000001 -0.000002 
-2.282764 105.642120 -1.133099 6.674657 60.491523 -7.146300 -0.328736 -0.299234 1.216198 0.790962 0.869049 3.810969 -1.978436 15.451607 7.559088 0.153671 4.207527 -7.569428 0.000000 -0.000001 0.000001 42.678611 11.609880 -13.507164 89.293249 48.345377 -12.330730 1.842254 32.467253 48.062658 -0.000000 -0.000004 -0.000001 -37.255069 -13.784127 6.902333 -40.130350 -56.795362 32.973483 13.424343 -21.764044 47.249985 0.000005 -0.000003 -0.000002 32.384734 -11.408865 -41.843009 -17.289787 -25.791969 -36.147362 -34.569766 10.601752 -8.936797 0.000001 -0.000001 0.000000 -0.534968 -1.482298 70.349562 -0.585567 11.805304 -136.425953 -25.048996 24.960003 -9.403150 0.000000 -0.000001 -0.000001 
-2.186867 105.646637 -1.134954 7.061918 60.364160 -7.503079 -0.206054 -0.324359 1.392654 0.560392 0.808954 3.665534 -1.864298 15.011251 7.604673 -0.179273 4.073305 -7.715904 -0.000000 0.000000 -0.000001 42.646154 11.852321 -13.483669 88.776545 48.342764 -11.611001 1.898339 32.501588 47.746362 0.000002 -0.000003 -0.000000 -36.810895 -13.496252 7.422720 -39.623881 -56.678009 33.879965 13.440287 -21.351871 46.445375 0.000003 0.000002 0.000002 32.504365 -11.221077 -41.590818 -17.381629 -25.812354 -36.370190 -34.565651 10.602181 -8.774204 0.000001 0.000001 -0.000001 -0.957680 -1.462946 69.638560 -0.564265 11.476130 -135.508057 -25.210401 25.353961 -9.425262 -0.000000 -0.000001 -0.000002 
-2.086369 105.650772 -1.138033 7.494614 60.286255 -7.662471 -0.239399 -0.327011 1.315877 0.466797 0.668772 4.067600 -1.651057 14.687540 7.132015 -0.479313 3.908922 -7.790466 0.000000 -0.000000 0.000000 42.496358 12.058608 -13.338590 88.241079 48.427807 -10.880744 1.755468 32.670195 47.508586 0.000002 -0.000009 0.000001 -36.776508 -13.784333 7.409480 -39.085658 -56.764435 34.606178 13.735287 -21.072967 45.925222 0.000001 0.000000 0.000000 32.685891 -10.996818 -41.352134 -17.243101 -25.779478 -36.297787 -34.990113 10.743131 -9.227442 0.000001 0.000000 -0.000001 -1.193596 -1.408270 68.873927 -0.559815 11.371015 -134.494061 -25.580486 25.230980 -9.468324 -0.000000 -0.000001 -0.000001 
-1.979076 105.657440 -1.137766 8.178793 59.688709 -8.026977 -0.456386 -0.309367 0.960341 0.434541 0.578003 4.370059 -1.464035 14.435410 7.077289 -0.760367 3.558780 -7.581360 0.000001 0.000001 0.000001 42.237388 11.856419 -13.278366 88.077393 48.222969 -10.742344 1.951860 32.759367 47.392381 -0.000000 -0.000001 -0.000002 -36.566429 -13.531518 7.462080 -40.278746 -57.781153 33.603322 13.879569 -20.468812 45.828998 0.000001 0.000004 0.000001 32.743271 -10.939327 -41.191566 -17.543348 -25.900487 -36.682774 -34.923181 10.794679 -8.496208 0.000000 0.000000 -0.000000 -1.909776 -1.305968 67.578165 -0.702405 11.284968 -133.570865 -25.442603 25.126055 -9.455472 -0.000000 -0.000002 -0.000002 
-1.857651 105.666519 -1.131685 8.430738 59.006988 -8.166475 -0.185541 -0.294548 1.110959 0.327910 0.538145 4.427473 -1.482561 14.594395 7.013158 -1.251462 3.172803 -7.258265 -0.000000 -0.000000 0.000000 42.046009 11.715190 -12.894841 88.215793 48.374733 -11.031228 2.013853 32.639162 47.420900 0.000002 -0.000003 -0.000000 -36.495190 -13.792997 7.285110 -40.135831 -58.096503 33.871489 13.930259 -19.922946 45.392054 0.000002 0.000001 0.000005 33.102133 -10.869303 -41.021556 -17.644674 -26.142513 -36.676053 -35.003333 10.922132 -8.123620 0.000001 0.000001 0.000001 -2.439237 -1.121525 66.135185 -0.633610 11.117064 -132.048758 -24.454270 24.801018 -9.360741 -0.000000 -0.000001 -0.000001 
-1.740360 105.678314 -1.126505 8.516221 58.543232 -8.526449 -0.461305 -0.309631 0.700806 1.033798 0.555440 5.991176 -1.602279 14.503750 6.093869 -1.666623 2.967035 -7.238483 0.000000 0.000000 0.000001 41.849266 11.491022 -12.340134 87.488071 48.336344 -10.137399 2.186444 32.709192 46.810264 0.000003 -0.000001 -0.000002 -36.671692 -14.217852 7.066345 -39.663619 -58.133577 34.363781 13.764048 -20.095260 44.945978 -0.000002 0.000004 0.000001 33.144770 -10.862602 -40.893852 -17.415516 -26.063688 -36.325921 -35.418940 11.212447 -7.504814 0.000002 -0.000002 -0.000001 -2.863546 -0.985681 65.200194 -0.590776 10.868655 -130.620743 -23.973527 24.876782 -9.341468 -0.000001 -0.000001 0.000001 
-1.613724 105.698532 -1.124689 8.822202 58.195828 -8.984853 0.052966 -0.322914 1.723557 0.036783 0.305619 4.848024 -1.181472 14.224458 6.579420 -2.045044 2.541777 -6.717072 -0.000000 0.000002 0.000001 41.806324 11.627991 -12.206815 87.431981 48.329852 -10.149675 1.949956 32.672097 46.776137 0.000000 -0.000003 0.000000 -36.555009 -14.485595 6.936979 -40.593580 -59.082564 33.575687 14.132459 -19.587593 44.376296 0.000003 -0.000001 0.000002 33.128603 -10.724092 -40.893760 -17.184116 -26.074667 -35.889383 -35.471863 11.232302 -7.521483 0.000000 -0.000000 -0.000000 -3.626535 -0.884756 63.486882 -0.627139 10.618758 -128.850071 -23.388992 25.732908 -9.495796 -0.000001 -0.000001 -0.000003 
